<svg width="41" height="41" viewBox="0 0 41 41" fill="none" xmlns="http://www.w3.org/2000/svg">
<path fill-rule="evenodd" clip-rule="evenodd" d="M19.8925 0.147735C19.7534 0.232798 19.2664 0.83821 18.7771 1.53431C18.2994 2.21385 17.8845 2.79844 17.8551 2.83333C17.8256 2.86831 17.1358 3.10694 16.3222 3.36381C15.5086 3.62061 14.7488 3.8926 14.6338 3.96826C14.3619 4.14699 14.1703 4.56025 14.1703 4.96779C14.1703 5.32549 14.3835 5.67531 15.5445 7.22269L16.1742 8.06207L16.1235 9.51634C16.0645 11.2075 16.1183 11.5182 16.5334 11.8839C17.0197 12.3125 17.2062 12.3004 18.95 11.7283L20.505 11.2181L22.0479 11.7296C23.7812 12.3042 23.9755 12.3167 24.4666 11.8839C24.8814 11.5185 24.9354 11.2071 24.8767 9.52173L24.8261 8.07292L25.598 7.02933C26.7036 5.53461 26.8297 5.32252 26.8297 4.9571C26.8297 4.55936 26.6357 4.14538 26.3662 3.96826C26.2512 3.8926 25.4914 3.62061 24.6778 3.36381C23.8642 3.10694 23.1744 2.86831 23.1449 2.83333C23.1155 2.79844 22.7006 2.21385 22.2229 1.53431C21.7336 0.83821 21.2466 0.232798 21.1075 0.147735C20.7856 -0.049245 20.2144 -0.049245 19.8925 0.147735ZM20.9454 3.83512C21.648 4.8402 21.7896 4.94922 22.8072 5.26793C23.663 5.53606 23.7116 5.56243 23.6113 5.70514C23.5526 5.7886 23.2793 6.17098 23.0038 6.55481L22.5031 7.2526V8.28751C22.5031 8.85674 22.4794 9.32242 22.4506 9.32242C22.4217 9.32242 22.0077 9.19579 21.5307 9.04102C21.0536 8.88625 20.5897 8.75962 20.5 8.75962C20.4103 8.75962 19.9464 8.88625 19.4693 9.04102C18.9923 9.19579 18.5783 9.32242 18.5494 9.32242C18.5206 9.32242 18.4969 8.85674 18.4969 8.28751V7.2526L17.9962 6.55481C17.7208 6.17098 17.4474 5.7886 17.3887 5.70514C17.2884 5.56243 17.337 5.53606 18.1928 5.26793C19.2104 4.94922 19.352 4.8402 20.0546 3.83512C20.2632 3.53667 20.4637 3.29242 20.5 3.29242C20.5363 3.29242 20.7368 3.53667 20.9454 3.83512ZM5.87766 3.61072C5.62968 3.71436 5.35454 4.04158 4.46053 5.29615C3.90809 6.07136 3.56781 6.47618 3.43392 6.51774C0.423004 7.45127 0.23071 7.54228 0.0598886 8.11457C-0.100757 8.65252 0.0127766 8.90844 1.01302 10.2626L1.95166 11.5334L1.99172 13.316C2.03138 15.0811 2.03378 15.1008 2.23209 15.3136C2.50106 15.6021 2.81025 15.7544 3.12722 15.7544C3.27144 15.7544 4.0584 15.5316 4.87621 15.2594L6.36296 14.7644L7.87134 15.2689C9.4927 15.8112 9.81407 15.8477 10.2293 15.5366C10.6783 15.2002 10.725 14.9791 10.7263 13.1829L10.7275 11.5334L11.6022 10.3524C12.0833 9.70287 12.5187 9.09303 12.5698 8.9972C12.7247 8.70679 12.6912 8.1653 12.4991 7.85335C12.2822 7.50136 12.1366 7.4335 10.4046 6.87818L9.00243 6.42866L8.09296 5.13583C7.56359 4.3832 7.07813 3.77852 6.93119 3.68863C6.67015 3.52888 6.16329 3.49141 5.87766 3.61072ZM34.0688 3.68381C33.9268 3.77337 33.4188 4.40829 32.907 5.13583L31.9976 6.42866L30.5954 6.87818C28.8634 7.4335 28.7178 7.50136 28.5009 7.85335C28.3088 8.1653 28.2753 8.70679 28.4302 8.9972C28.4813 9.09303 28.9167 9.70287 29.3978 10.3524L30.2725 11.5334L30.2737 13.1829C30.275 14.9791 30.3217 15.2002 30.7707 15.5366C31.1846 15.8467 31.5044 15.8104 33.1316 15.2686L34.6462 14.7644L36.1262 15.2594C36.9402 15.5316 37.7252 15.7544 37.8705 15.7544C38.1897 15.7544 38.4984 15.6028 38.7679 15.3136C38.9662 15.1008 38.9686 15.0811 39.0083 13.316L39.0483 11.5334L39.987 10.2626C40.9872 8.90844 41.1008 8.65252 40.9401 8.11457C40.7692 7.5422 40.5786 7.45199 37.5661 6.51766C37.432 6.47618 37.0874 6.06557 36.5245 5.27693C35.4097 3.71516 35.2871 3.59641 34.7473 3.55629C34.4218 3.53217 34.2615 3.56224 34.0688 3.68381ZM6.80291 7.41292C7.5285 8.42636 7.61535 8.49317 8.62121 8.81107C9.11733 8.96785 9.52323 9.11217 9.52323 9.13171C9.52323 9.15124 9.29015 9.48595 9.00524 9.87549C8.72032 10.265 8.44991 10.6821 8.40432 10.8025C8.35873 10.9229 8.32139 11.4525 8.32139 11.9794V12.9375L7.58026 12.6694C6.43283 12.2542 6.37546 12.2517 5.37545 12.5761C4.89416 12.7323 4.45877 12.86 4.40805 12.86C4.34235 12.86 4.32136 12.576 4.33514 11.8751C4.35709 10.7604 4.38538 10.8425 3.62694 9.8147L3.11536 9.12142L3.98012 8.83945C4.45573 8.68436 4.93798 8.49623 5.05176 8.42145C5.16561 8.3466 5.4881 7.95851 5.76853 7.559C6.04888 7.15958 6.30239 6.83211 6.33195 6.83138C6.36144 6.83058 6.57336 7.09236 6.80291 7.41292ZM35.2315 7.559C35.5119 7.95851 35.8344 8.3466 35.9482 8.42145C36.062 8.49623 36.5443 8.68436 37.0199 8.83945L37.8846 9.12142L37.3731 9.8147C36.6146 10.8425 36.6429 10.7604 36.6649 11.8751C36.6786 12.576 36.6576 12.86 36.5919 12.86C36.5412 12.86 36.1058 12.7323 35.6245 12.5761C34.6408 12.257 34.5857 12.2585 33.4848 12.6311C33.113 12.757 32.7795 12.86 32.7437 12.86C32.7079 12.86 32.6786 12.4463 32.6786 11.9406C32.6786 11.435 32.6413 10.9229 32.5957 10.8025C32.5501 10.6821 32.2797 10.265 31.9948 9.87549C31.7098 9.48595 31.4768 9.15124 31.4768 9.13171C31.4768 9.11217 31.8827 8.96785 32.3788 8.81107C33.3846 8.49317 33.4715 8.42636 34.1971 7.41292C34.4266 7.09236 34.6386 6.83058 34.668 6.83138C34.6976 6.83211 34.9511 7.15958 35.2315 7.559ZM19.6587 14.2349C16.4075 14.5753 13.6242 17.2425 13.1229 20.498C12.9823 21.4109 13.0687 23.2856 13.2859 24.0356C13.6435 25.27 14.4258 26.6164 15.2455 27.4081C15.4033 27.5605 15.5324 27.7113 15.5324 27.7433C15.5324 27.7753 15.3431 27.8629 15.1118 27.9379C14.4129 28.1646 13.1215 28.8176 12.3624 29.3282C9.23487 31.4318 7.19776 34.8009 6.80195 38.5246C6.64219 40.027 6.72976 40.4542 7.27163 40.8175L7.54388 41H20.5H33.4561L33.7284 40.8181C33.8781 40.718 34.0703 40.4932 34.1556 40.3185C34.3013 40.0199 34.3049 39.9332 34.2165 38.861C33.9903 36.118 32.9806 33.6874 31.1963 31.5913C29.8549 30.0153 27.6822 28.5198 25.8882 27.9379C25.6569 27.8629 25.4676 27.7821 25.4676 27.7584C25.4676 27.7347 25.6661 27.5001 25.9087 27.2372C26.7582 26.3165 27.3645 25.2402 27.7154 24.0302C27.9313 23.2858 28.0172 21.4079 27.8771 20.498C27.4517 17.7359 25.4017 15.3728 22.6911 14.5203C22.1675 14.3555 20.5815 14.1094 20.3513 14.1571C20.3229 14.163 20.0113 14.198 19.6587 14.2349ZM22.0892 16.827C23.6625 17.3689 24.8542 18.5741 25.3612 20.1362C25.5379 20.6808 25.5711 20.9335 25.5778 21.7844C25.587 22.9642 25.4944 23.414 25.049 24.3527C24.4338 25.6494 23.111 26.7137 21.7018 27.046C21.0355 27.2031 19.9645 27.2031 19.2982 27.046C17.889 26.7137 16.5662 25.6494 15.951 24.3527C15.5056 23.414 15.413 22.9642 15.4222 21.7844C15.4289 20.9335 15.4621 20.6808 15.6388 20.1362C16.2171 18.3545 17.6938 17.0419 19.5778 16.6348C20.1685 16.5072 21.4438 16.6048 22.0892 16.827ZM22.911 29.6707C26.7826 30.1734 30.0415 32.7977 31.3052 36.4305C31.5442 37.1175 31.7973 38.184 31.7973 38.5042V38.6684H20.5H9.20274V38.5042C9.20274 38.184 9.45576 37.1175 9.69477 36.4305C10.932 32.8741 14.0967 30.2652 17.856 29.7028C18.7117 29.5747 22.0106 29.5538 22.911 29.6707Z" fill="#355CA9"/>
</svg>
