<svg width="41" height="41" viewBox="0 0 41 41" fill="none" xmlns="http://www.w3.org/2000/svg">
<path fill-rule="evenodd" clip-rule="evenodd" d="M14.6938 0.0539843C13.5864 0.151555 12.8242 0.504292 12.0885 1.25958C11.315 2.05376 11.0279 2.82169 10.9491 4.307L10.8884 5.45269L7.01964 5.47152L3.15077 5.49024L2.44968 5.80312C1.52077 6.21758 0.637785 7.13023 0.286146 8.03947L0.0153097 8.73959L0.00765484 20.5258L0 32.3121L0.348844 33.0765C0.786508 34.0359 1.7249 34.9269 2.66973 35.2804C3.32829 35.5268 3.534 35.532 12.6329 35.532C17.7427 35.532 21.9234 35.49 21.9234 35.4387C21.9234 35.3874 21.3516 34.7755 20.6529 34.079L19.3821 32.8128L11.5383 32.7976C3.85526 32.7828 3.68771 32.7775 3.36183 32.5355C2.74591 32.0783 2.72927 31.9626 2.72732 28.1504L2.7255 24.5963H12.3285H21.9315L21.8971 23.2294L21.8627 21.8624L12.2941 21.8686L2.7255 21.8748V15.5745C2.7255 10.1808 2.75199 9.22307 2.90982 8.91785C3.30812 8.14773 2.29999 8.19281 19.1288 8.19281C35.9576 8.19281 34.9495 8.14773 35.3478 8.91785C35.5056 9.22307 35.5321 10.1833 35.5321 15.5987V21.9232H36.9353H38.3384L38.3022 15.3314L38.266 8.73959L37.9802 8.0312C37.5927 7.07056 36.6377 6.12098 35.6937 5.75792C35.0177 5.49789 34.813 5.48489 31.2032 5.47213L27.4211 5.45889L27.3599 4.36532C27.2764 2.87819 26.946 2.04209 26.1127 1.20879C25.667 0.762981 25.2469 0.479869 24.7582 0.295906C24.0837 0.0419552 23.8463 0.0279818 19.7971 0.00404476C17.4581 -0.0096856 15.1616 0.0126717 14.6938 0.0539843ZM23.8715 2.90929C24.3892 3.17697 24.5966 3.672 24.5966 4.63956V5.47274L20.0097 5.45281C17.487 5.44188 15.0265 5.42499 14.542 5.41551L13.661 5.39813V4.60226C13.661 3.68925 13.8722 3.1805 14.3613 2.91512C14.8616 2.64368 23.3477 2.63845 23.8715 2.90929ZM16.4484 16.3911C16.4444 16.393 16.4114 17.0098 16.3752 17.7615L16.3094 19.1285H19.1204H21.9315L21.8971 17.7625L21.8627 16.3965L19.1592 16.392C17.6722 16.3895 16.4524 16.3891 16.4484 16.3911ZM30.0036 23.2598L28.6712 24.5963H26.6339H24.5966V26.6297V28.6631L23.2316 30.0319L21.8667 31.4008L23.2316 32.7697L24.5966 34.1385V36.2326V38.3267H26.6946H28.7927L30.1252 39.6634L31.4577 41L32.7981 39.6634L34.1386 38.3267H36.2327H38.3267V36.2286V34.1306L39.6634 32.798L41 31.4655L39.6634 30.1251L38.3267 28.7846V26.6904V24.5963H36.2287H34.1307L32.7982 23.2598C32.0654 22.5246 31.4366 21.9232 31.4009 21.9232C31.3652 21.9232 30.7364 22.5246 30.0036 23.2598ZM32.2514 26.6012L33.0342 27.391H34.2831H35.5321V28.6334V29.8759L36.3221 30.672L37.1122 31.4681L36.3221 32.2511L35.5321 33.0341V34.2831V35.532H34.2897H33.0473L32.2512 36.3221L31.4551 37.1121L30.6721 36.3221L29.8891 35.532H28.6402H27.3912V34.2896V33.0472L26.5743 32.224L25.7574 31.4008L26.5743 30.5776L27.3912 29.7543V28.5727V27.391H28.5794H29.7676L30.5504 26.6012C30.9809 26.1668 31.3636 25.8114 31.4009 25.8114C31.4382 25.8114 31.821 26.1668 32.2514 26.6012Z" fill="#355CA9"/>
</svg>
