<svg width="23" height="24" viewBox="0 0 23 24" fill="none" xmlns="http://www.w3.org/2000/svg">
<path d="M19.9055 19.216C19.9055 19.561 19.8288 19.9156 19.6659 20.2606C19.503 20.6056 19.2922 20.9314 19.0142 21.2381C18.5447 21.7556 18.0272 22.1293 17.4426 22.3689C16.8676 22.6085 16.2447 22.7331 15.5738 22.7331C14.5963 22.7331 13.5517 22.5031 12.4497 22.0335C11.3476 21.5639 10.2455 20.9314 9.153 20.136C8.05091 19.331 7.00633 18.4397 6.00966 17.4527C5.02258 16.456 4.13133 15.4114 3.33591 14.3189C2.55008 13.2264 1.91758 12.1339 1.45758 11.051C0.997578 9.95849 0.767578 8.91391 0.767578 7.91724C0.767578 7.26557 0.882578 6.64266 1.11258 6.06766C1.34258 5.48307 1.70674 4.94641 2.21466 4.46724C2.82799 3.86349 3.49883 3.56641 4.208 3.56641C4.47633 3.56641 4.74466 3.62391 4.98424 3.73891C5.23341 3.85391 5.45383 4.02641 5.62633 4.27557L7.84966 7.40932C8.02216 7.64891 8.14675 7.86932 8.233 8.08016C8.31925 8.28141 8.36716 8.48266 8.36716 8.66474C8.36716 8.89474 8.30008 9.12474 8.16591 9.34516C8.04133 9.56557 7.85924 9.79557 7.62924 10.0256L6.90091 10.7827C6.79549 10.8881 6.74758 11.0127 6.74758 11.166C6.74758 11.2427 6.75716 11.3097 6.77633 11.3864C6.80508 11.4631 6.83383 11.5206 6.853 11.5781C7.0255 11.8943 7.32258 12.3064 7.74425 12.8047C8.1755 13.3031 8.63549 13.811 9.13383 14.3189C9.65133 14.8268 10.1497 15.2964 10.6576 15.7277C11.1559 16.1493 11.568 16.4368 11.8938 16.6093C11.9417 16.6285 11.9992 16.6572 12.0663 16.686C12.143 16.7147 12.2197 16.7243 12.3059 16.7243C12.4688 16.7243 12.5934 16.6668 12.6988 16.5614L13.4272 15.8427C13.6667 15.6031 13.8967 15.421 14.1172 15.306C14.3376 15.1718 14.558 15.1047 14.7976 15.1047C14.9797 15.1047 15.1713 15.1431 15.3822 15.2293C15.593 15.3156 15.8134 15.4402 16.053 15.6031L19.2251 17.8552C19.4742 18.0277 19.6467 18.2289 19.7522 18.4685C19.848 18.7081 19.9055 18.9477 19.9055 19.216Z" stroke="white" stroke-width="1.2" stroke-miterlimit="10"/>
<path d="M16.5807 10.276C16.5807 9.70104 16.1303 8.81937 15.4595 8.10062C14.8461 7.43938 14.0316 6.92188 13.2266 6.92188" stroke="white" stroke-width="1.2" stroke-linecap="round" stroke-linejoin="round"/>
<path d="M19.9349 10.2747C19.9349 6.56599 16.9353 3.56641 13.2266 3.56641" stroke="white" stroke-width="1.2" stroke-linecap="round" stroke-linejoin="round"/>
</svg>
