<svg width="35" height="46" viewBox="0 0 35 46" fill="none" xmlns="http://www.w3.org/2000/svg">
<path fill-rule="evenodd" clip-rule="evenodd" d="M14.9997 0.0396563C13.8158 0.185602 12.103 0.629595 10.9157 1.0984C6.96411 2.65859 3.73472 5.5673 1.79862 9.30997C1.08911 10.6817 0.422518 12.5954 0.182535 13.9499C-0.0317355 15.1596 -0.0660188 18.8108 0.125919 19.9857C0.535689 22.4944 1.77339 25.3506 3.36847 27.4685C4.28036 28.6793 5.30059 29.7166 6.6109 30.7652C8.05424 31.9204 8.64351 32.6435 9.08907 33.8064C9.31698 34.4013 9.36032 35.0066 9.4176 38.3949C9.46534 41.2179 9.49945 41.5939 9.73937 41.9426C10.0172 42.3464 10.4206 42.6818 10.8098 42.8327C11.0976 42.9442 11.3225 42.9765 11.9674 42.9987L12.7677 43.0263L13.0102 43.4924C13.507 44.4475 14.273 45.1741 15.3437 45.7061L15.9353 46H17.1123H18.2893L18.8694 45.716C19.8915 45.2157 20.6193 44.5302 21.1641 43.555C21.4192 43.0982 21.434 43.0841 21.6922 43.0487C21.8382 43.0286 22.0966 43.0118 22.2662 43.0113C22.6531 43.0099 23.3158 42.8718 23.5805 42.7374C23.9306 42.5595 24.2628 42.2514 24.5243 41.8618L24.7777 41.4844L24.7786 40.2415C24.7799 38.4312 24.89 34.7686 24.9551 34.3716C25.0317 33.9038 25.342 33.1826 25.6908 32.6609C26.0731 32.0894 26.5783 31.5813 27.4811 30.8604C28.925 29.7072 30.0523 28.5551 31.0047 27.2589C32.4948 25.2308 33.6913 22.4345 34.0738 20.0861C34.1828 19.417 34.2355 18.0348 34.2125 16.4548C34.1901 14.9187 34.1464 14.4836 33.9127 13.4671C32.8574 8.87787 30.0965 4.97295 26.166 2.51065C25.4459 2.0596 23.8641 1.30518 22.9474 0.975627C21.8835 0.593199 20.4889 0.240829 19.5869 0.126511C18.6953 0.013461 15.6758 -0.043698 14.9997 0.0396563ZM19.0437 3.05798C20.9346 3.27629 23.1204 4.1 24.9147 5.27046C26.5821 6.35805 28.3084 8.16903 29.336 9.90842C29.9978 11.0285 30.609 12.4972 30.9049 13.6783C31.3574 15.4844 31.4184 18.0912 31.0511 19.9242C30.7402 21.4754 29.975 23.3606 29.0865 24.7643C28.275 26.0463 27.0011 27.455 25.8038 28.3941C24.0919 29.737 23.3857 30.5494 22.7244 31.9366C22.1834 33.0713 21.9451 33.945 21.8478 35.1507L21.8076 35.6486H17.1108H12.4139L12.3782 35.2412C12.2328 33.5884 11.7613 32.1916 10.9244 30.9345C10.3935 30.137 9.79689 29.5202 8.67381 28.6079C7.15629 27.3752 6.30766 26.4804 5.39094 25.1463C4.28253 23.5333 3.36062 21.3147 3.08141 19.5881C2.87884 18.3359 2.91138 15.4858 3.1408 14.3749C4.04116 10.016 6.99381 6.23039 10.9859 4.31656C12.2492 3.71093 14.0895 3.16179 15.3964 3.00046C15.9706 2.92959 18.2416 2.96539 19.0437 3.05798ZM14.4565 8.48289C13.9893 8.6371 13.1775 8.99062 12.8502 9.1825C12.5358 9.36671 12.5373 9.34842 12.7741 10.1024C12.8981 10.4972 12.905 10.5792 12.8437 10.9368C12.6282 12.195 11.3776 12.9546 10.2315 12.5234C9.59137 12.2826 9.58473 12.286 9.19923 13.0554C8.89333 13.6658 8.63307 14.3557 8.58852 14.6742C8.57543 14.7678 8.66023 14.8421 8.96745 15.0061C9.52057 15.3014 9.72199 15.4585 9.92068 15.7496C10.4909 16.5849 10.3822 17.6357 9.65433 18.3241C9.47651 18.4922 9.20092 18.6856 9.04187 18.7538C8.60011 18.9432 8.54157 19.0153 8.61454 19.2805C8.7594 19.8073 9.42901 21.3304 9.59499 21.5108C9.6032 21.5197 9.79037 21.4425 10.011 21.3393C10.3487 21.1812 10.4864 21.1511 10.8819 21.1485C11.4541 21.1447 11.7559 21.2635 12.2052 21.6695C12.8635 22.2644 13.0314 23.0534 12.6807 23.9042C12.5566 24.2054 12.5251 24.3483 12.568 24.4162C12.6905 24.6104 14.2896 25.2986 14.7722 25.3647L15.0324 25.4004L15.2611 24.9437C15.6879 24.0918 16.3716 23.6606 17.2133 23.7126C18.0128 23.762 18.5556 24.1487 18.9505 24.9502C19.1343 25.3233 19.1889 25.3878 19.3206 25.3878C19.6692 25.3878 21.3534 24.6999 21.5932 24.4596C21.693 24.3596 21.6925 24.3431 21.5838 24.1302C21.2733 23.5216 21.2705 22.6692 21.5773 22.1911C21.8131 21.8236 22.2859 21.3778 22.5625 21.2622C23.0402 21.0626 23.6912 21.1036 24.273 21.37L24.5941 21.517L24.7093 21.3549C25.0202 20.9179 25.6762 19.2163 25.6052 19.0312C25.5829 18.973 25.3883 18.8463 25.1729 18.7497C24.4162 18.4101 23.9964 17.808 23.9463 16.9903C23.892 16.1049 24.2654 15.5063 25.149 15.062C25.4918 14.8896 25.6227 14.7919 25.6227 14.7086C25.6227 14.3981 24.7279 12.2901 24.5962 12.2901C24.5715 12.2901 24.3917 12.3638 24.1967 12.4538C23.9012 12.5904 23.7568 12.618 23.3291 12.6198C22.8784 12.6218 22.7735 12.6004 22.4655 12.4444C21.5715 11.9914 21.1281 10.9273 21.4582 10.0267C21.7006 9.3652 21.6939 9.34921 21.0355 9.02183C20.2353 8.62389 19.3243 8.31956 19.2121 8.41269C19.1651 8.45168 19.0381 8.6598 18.9299 8.87522C18.6962 9.34009 18.3824 9.67085 17.9796 9.87655C17.7266 10.0058 17.6059 10.0264 17.1123 10.0252C16.628 10.0238 16.492 10.0006 16.2371 9.87565C15.8299 9.67611 15.4851 9.31685 15.2812 8.87986C15.1156 8.52496 14.9799 8.36362 14.8524 8.37008C14.8172 8.37183 14.6391 8.42259 14.4565 8.48289ZM17.8969 14.3316C19.466 14.744 20.2713 16.6092 19.5215 18.0945C19.1675 18.7959 18.2984 19.438 17.4895 19.5959C16.4364 19.8013 15.1791 19.0877 14.653 17.9858C14.4346 17.5282 14.4265 17.4882 14.4294 16.8773C14.4318 16.3604 14.4577 16.1828 14.5692 15.9141C14.8575 15.2201 15.4254 14.6574 16.13 14.3677C16.5601 14.1909 17.3035 14.1757 17.8969 14.3316Z" fill="#355CA9"/>
</svg>
